<svg width="140" height="140" viewBox="0 0 140 140" fill="none" xmlns="http://www.w3.org/2000/svg">
  <path
    d="M89.3033 98.9099C86.3744 95.981 86.3744 91.2322 89.3033 88.3033C92.2323 85.3744 96.981 85.3744 99.9099 88.3033L102.738 91.1317C105.667 94.0607 105.667 98.8094 102.738 101.738C99.8094 104.667 95.0607 104.667 92.1318 101.738L89.3033 98.9099Z"
    fill="#8839ea" />
  <path
    d="M119.002 129.608C116.073 126.679 116.073 121.931 119.002 119.002C121.931 116.073 126.679 116.073 129.608 119.002L132.437 121.83C135.366 124.759 135.366 129.508 132.437 132.437C129.508 135.366 124.759 135.366 121.83 132.437L119.002 129.608Z"
    fill="#8839ea" />
  <path
    d="M99.9099 131.437C96.981 134.366 92.2322 134.366 89.3033 131.437C86.3744 128.508 86.3744 123.759 89.3033 120.83L92.1317 118.002C95.0607 115.073 99.8094 115.073 102.738 118.002C105.667 120.931 105.667 125.679 102.738 128.608L99.9099 131.437Z"
    fill="#8839ea" />
  <path
    d="M129.608 101.738C126.679 104.667 121.931 104.667 119.002 101.738C116.073 98.8094 116.073 94.0607 119.002 91.1317L121.83 88.3033C124.759 85.3744 129.508 85.3744 132.437 88.3033C135.366 91.2322 135.366 95.981 132.437 98.9099L129.608 101.738Z"
    fill="#8839ea" />
  <path
    d="M118.37 109.87C118.37 114.012 115.012 117.37 110.87 117.37C106.728 117.37 103.37 114.012 103.37 109.87C103.37 105.728 106.728 102.37 110.87 102.37C115.012 102.37 118.37 105.728 118.37 109.87Z"
    fill="#fff" />
  <path fill-rule="evenodd" clip-rule="evenodd"
    d="M14.7541 14.7541V45.2459H45.2459V14.7541H14.7541ZM11.8033 0C5.28451 0 0 5.28451 0 11.8033V48.1967C0 54.7155 5.28451 60 11.8033 60H48.1967C54.7155 60 60 54.7155 60 48.1967V11.8033C60 5.28451 54.7155 0 48.1967 0H11.8033Z"
    fill="#fff" />
  <path
    d="M38 30.5C38 34.6421 34.6421 38 30.5 38C26.3579 38 23 34.6421 23 30.5C23 26.3579 26.3579 23 30.5 23C34.6421 23 38 26.3579 38 30.5Z"
    fill="#fff" />
  <path fill-rule="evenodd" clip-rule="evenodd"
    d="M94.7541 14.7541V45.2459H125.246V14.7541H94.7541ZM91.8033 0C85.2845 0 80 5.28451 80 11.8033V48.1967C80 54.7155 85.2845 60 91.8033 60H128.197C134.715 60 140 54.7155 140 48.1967V11.8033C140 5.28451 134.715 0 128.197 0H91.8033Z"
    fill="#fff" />
  <path
    d="M118 30.5C118 34.6421 114.642 38 110.5 38C106.358 38 103 34.6421 103 30.5C103 26.3579 106.358 23 110.5 23C114.642 23 118 26.3579 118 30.5Z"
    fill="#fff" />
  <path fill-rule="evenodd" clip-rule="evenodd"
    d="M14.7541 94.7541V125.246H45.2459V94.7541H14.7541ZM11.8033 80C5.28451 80 0 85.2845 0 91.8033V128.197C0 134.715 5.28451 140 11.8033 140H48.1967C54.7155 140 60 134.715 60 128.197V91.8033C60 85.2845 54.7155 80 48.1967 80H11.8033Z"
    fill="#fff" />
  <path
    d="M38 110.5C38 114.642 34.6421 118 30.5 118C26.3579 118 23 114.642 23 110.5C23 106.358 26.3579 103 30.5 103C34.6421 103 38 106.358 38 110.5Z"
    fill="#fff" />
</svg>